<?xml version="1.0" standalone="no"?>
<!DOCTYPE svg PUBLIC "-//W3C//DTD SVG 20010904//EN"
 "http://www.w3.org/TR/2001/REC-SVG-20010904/DTD/svg10.dtd">
<svg version="1.0" xmlns="http://www.w3.org/2000/svg"
 width="400.000000pt" height="400.000000pt" viewBox="0 0 400.000000 400.000000"
 preserveAspectRatio="xMidYMid meet">
<metadata>
Created by potrace 1.14, written by Peter Selinger 2001-2017
</metadata>
<g transform="translate(0.000000,400.000000) scale(0.100000,-0.100000)"
fill="#000000" stroke="none">
<path d="M2935 2715 c-122 -26 -324 -99 -465 -170 -51 -25 -99 -44 -107 -41
-7 3 -12 1 -10 -4 1 -6 -45 -36 -103 -66 -58 -31 -167 -94 -244 -140 -76 -46
-143 -81 -149 -77 -5 3 -7 2 -4 -3 3 -6 -29 -31 -71 -57 -85 -53 -181 -115
-389 -252 -151 -99 -207 -122 -316 -131 -80 -7 -128 4 -171 37 -43 34 -34 54
32 73 140 39 228 134 288 310 31 89 31 106 3 80 -16 -15 -42 -20 -127 -24 -85
-5 -116 -11 -152 -29 -42 -23 -130 -105 -130 -123 0 -22 -19 -2 -49 55 -47 86
-94 133 -155 153 -69 23 -104 41 -152 81 -49 40 -58 34 -75 -47 -24 -112 15
-242 98 -324 43 -43 156 -120 209 -142 40 -17 38 -11 53 -129 24 -179 125
-285 316 -331 71 -17 335 -33 565 -33 197 -1 201 -1 193 13 -4 6 1 5 10 -3 14
-11 18 -11 23 3 8 20 34 21 34 2 0 -12 15 -14 73 -12 l72 2 -1 37 c0 28 4 37
16 37 10 0 22 10 28 23 10 20 11 19 5 -8 -3 -16 -13 -35 -22 -42 -9 -7 -13
-13 -8 -13 11 0 -30 -77 -54 -101 -11 -11 -17 -24 -14 -29 12 -19 115 -33 212
-28 113 5 183 31 262 96 53 43 91 65 91 51 0 -5 28 -9 63 -8 44 0 56 3 42 9
-13 6 9 8 65 7 111 -2 300 19 348 39 60 26 130 63 148 79 6 6 28 23 48 39 23
18 35 35 31 44 -3 9 0 12 9 9 18 -7 70 58 60 76 -4 6 -4 9 1 5 13 -12 36 42
26 61 -9 14 -10 14 -16 0 -5 -13 -15 -14 -64 -8 -32 5 -93 10 -135 13 -71 3
-80 2 -107 -21 -16 -14 -29 -22 -29 -19 0 3 -24 -8 -52 -23 -115 -63 -193
-101 -205 -101 -7 0 -21 -9 -32 -21 -11 -12 -24 -18 -29 -15 -6 3 -17 0 -25
-8 -8 -8 -17 -12 -21 -9 -3 3 -12 0 -21 -7 -18 -15 -18 -15 32 90 17 36 36 84
42 108 l12 42 349 0 350 0 34 68 c153 305 184 530 96 702 -78 153 -342 218
-635 155z m-85 -615 c0 -5 -2 -10 -4 -10 -3 0 -8 5 -11 10 -3 6 -1 10 4 10 6
0 11 -4 11 -10z m34 -6 c9 -24 2 -26 -12 -4 -7 11 -8 20 -3 20 5 0 12 -7 15
-16z m-34 -44 c0 -5 -4 -10 -10 -10 -5 0 -10 5 -10 10 0 6 5 10 10 10 6 0 10
-4 10 -10z m30 0 c0 -5 -4 -10 -10 -10 -5 0 -10 5 -10 10 0 6 5 10 10 10 6 0
10 -4 10 -10z m-720 -375 c-17 -18 -30 -23 -44 -19 -21 6 -21 6 -1 -10 11 -8
15 -16 10 -16 -6 0 -17 6 -24 13 -12 10 -13 9 -7 -7 5 -14 2 -17 -10 -12 -8 3
-18 6 -21 6 -9 0 41 36 62 45 11 4 23 7 28 7 4 -1 7 3 7 8 0 6 5 10 12 10 6 0
1 -11 -12 -25z m765 -35 c-3 -5 -16 -10 -28 -9 -21 0 -21 1 -2 9 28 12 37 12
30 0z m-875 -14 c0 -2 -7 -7 -16 -10 -8 -3 -12 -2 -9 4 6 10 25 14 25 6z m59
-44 c-6 -18 -15 -32 -20 -32 -12 0 -12 2 7 39 20 40 28 35 13 -7z m-106 11
c-7 -2 -10 -10 -7 -18 3 -7 0 -16 -7 -21 -8 -4 -10 -3 -5 4 4 7 3 12 -2 12
-17 0 -22 -13 -10 -27 8 -11 7 -12 -6 -7 -10 4 -25 -1 -36 -11 -23 -20 -27
-40 -7 -32 7 3 13 -3 14 -12 2 -21 -27 -21 -53 0 -16 12 -17 12 -12 -2 4 -11
1 -16 -9 -15 -9 0 -17 -7 -18 -16 -3 -15 5 -18 38 -19 38 -1 37 -2 -17 -10
-33 -5 -62 -7 -64 -4 -3 3 6 5 19 6 19 0 20 2 7 7 -14 6 -12 12 18 46 39 44
157 136 164 128 3 -2 0 -7 -7 -9z m874 11 c-3 -3 -12 -4 -19 -1 -8 3 -5 6 6 6
11 1 17 -2 13 -5z m50 0 c-3 -3 -12 -4 -19 -1 -8 3 -5 6 6 6 11 1 17 -2 13 -5z
m298 -42 c-3 -3 -11 0 -18 7 -9 10 -8 11 6 5 10 -3 15 -9 12 -12z m-512 -22
c-3 -12 -8 -19 -11 -16 -5 6 5 36 12 36 2 0 2 -9 -1 -20z m-39 -8 c3 -5 -1 -9
-9 -9 -8 0 -12 4 -9 9 3 4 7 8 9 8 2 0 6 -4 9 -8z m-53 -49 c0 -15 2 -15 9 2
5 13 9 14 9 5 0 -8 -4 -24 -9 -35 -8 -18 -9 -18 -9 -2 -1 10 -6 15 -11 12 -6
-4 -8 -10 -6 -14 3 -4 -6 -7 -19 -7 -13 0 -21 4 -19 8 3 5 9 6 14 3 11 -7 32
30 23 39 -3 3 -1 6 5 6 7 0 12 -8 13 -17z m-601 -53 c0 -5 -5 -10 -11 -10 -5
0 -7 5 -4 10 3 6 8 10 11 10 2 0 4 -4 4 -10z m763 -7 c-13 -2 -33 -2 -45 0
-13 2 -3 4 22 4 25 0 35 -2 23 -4z m-768 -23 c-4 -7 -75 -1 -75 6 0 3 18 4 39
2 22 -1 38 -5 36 -8z"/>
<path d="M1890 1510 c-13 -8 -13 -11 2 -26 15 -15 16 -14 15 10 -1 14 -2 26
-2 26 0 0 -7 -5 -15 -10z"/>
<path d="M3298 1773 c12 -2 32 -2 45 0 12 2 2 4 -23 4 -25 0 -35 -2 -22 -4z"/>
</g>
</svg>
